<?xml version="1.0" encoding="UTF-8"?>
<svg version="1.1" xmlns="http://www.w3.org/2000/svg" width="500" height="500">
<path d="M0 0 C3.32192986 2.64552721 4.83908543 4.11837309 5.61181641 8.35205078 C5.60843262 9.62032715 5.60504883 10.88860352 5.6015625 12.1953125 C5.60834518 12.89240829 5.61512787 13.58950409 5.62211609 14.307724 C5.63548067 15.80349227 5.63854125 17.29938186 5.63223267 18.79519653 C5.61998445 22.74062097 5.69632297 26.6842851 5.76953125 30.62890625 C5.78294052 31.42181564 5.79634979 32.21472504 5.81016541 33.03166199 C5.95841437 40.41847799 6.51140766 47.71516022 7.3125 55.0625 C7.41836426 56.12936035 7.52422852 57.1962207 7.63330078 58.29541016 C8.7695314 68.06511799 11.41286995 77.31609972 19 84 C32.7160502 94.50214176 51.31973141 96.07467123 68 97 C68 96.34 68 95.68 68 95 C67.01157104 94.89510254 67.01157104 94.89510254 66.00317383 94.78808594 C27.40580493 90.59572351 27.40580493 90.59572351 16 78 C6.18185351 63.25748721 7.77909121 41.40909035 7.59259033 24.45056152 C7.57259657 22.82226628 7.54445212 21.19404989 7.50799561 19.56604004 C7.46005046 17.25178523 7.44617402 14.93969904 7.44140625 12.625 C7.42196457 11.92993347 7.40252289 11.23486694 7.38249207 10.51873779 C7.41786443 6.65901538 7.91808695 5.10145867 10.37475586 2.05859375 C13 0 13 0 15.5625 -0.5625 C18.73810981 0.17033303 19.95272307 1.51402087 22 4 C23.37104857 6.74209714 23.18067489 9.01527459 23.24609375 12.08203125 C23.27896484 13.32533203 23.31183594 14.56863281 23.34570312 15.84960938 C23.40590419 18.44850194 23.4632939 21.04746149 23.51757812 23.64648438 C23.90250843 37.81627739 24.4490182 53.47463654 34.6875 64.375 C48.12782324 76.46378235 67.23851852 81.86043592 85 83 C85 82.34 85 81.68 85 81 C84.23300781 80.93683594 83.46601563 80.87367188 82.67578125 80.80859375 C65.76025115 78.94218799 47.14039625 73.74447773 35.0625 61.1875 C25.13484478 48.65353911 24.78157514 30.41602461 24.5 15.0625 C24.45407715 13.6688623 24.45407715 13.6688623 24.40722656 12.24707031 C24.40553376 7.65450877 24.49879325 5.65206339 27.375 1.91015625 C30 0 30 0 32.5 -0.625 C35.25291942 0.06322986 36.90972248 1.04661846 38.87646484 3.09570312 C41.4681136 7.48832814 41.21542931 13.08782012 41.5625 18.0625 C42.45565722 30.01757475 43.71353491 43.36142782 53 52 C64.7284712 60.62201126 76.86123021 64.37998674 91 67 C92.03125 67.20753906 93.0625 67.41507812 94.125 67.62890625 C102.1241988 69.03072663 110.0168766 69.20665341 118.125 69.25 C119.22884033 69.25926514 120.33268066 69.26853027 121.4699707 69.27807617 C122.5137085 69.27396729 123.55744629 69.2698584 124.6328125 69.265625 C126.03877686 69.26224121 126.03877686 69.26224121 127.47314453 69.25878906 C130.09837137 68.98992525 131.74431718 68.3326328 134 67 C130.52114667 65.84038222 127.54133325 65.72125182 123.875 65.53515625 C122.43098173 65.45652436 120.98697157 65.3777433 119.54296875 65.29882812 C117.28348353 65.18017713 115.02392217 65.06369898 112.76416016 64.95043945 C87.7084408 63.67637298 87.7084408 63.67637298 81 58 C78.49968346 54.24952518 78.46396446 52.44143734 79 48 C80.9375 45.0625 80.9375 45.0625 84 43 C88.13628696 42.32737016 92.04955242 42.85487112 96.16577148 43.48339844 C100.05035666 44.00678476 103.91365131 44.3225244 107.82421875 44.5390625 C108.55767014 44.58100739 109.29112152 44.62295227 110.04679871 44.66616821 C115.32839736 44.95081471 120.60645763 45.11287394 125.89453125 45.2109375 C126.62896454 45.22529846 127.36339783 45.23965942 128.12008667 45.25445557 C131.10499172 45.31124709 134.08969782 45.36657628 137.07495117 45.40136719 C153.26884009 45.60438147 171.93543923 47.90801978 184 60 C187.66523547 63.94125145 188.26140429 66.50169626 188.20703125 71.88671875 C188.09713607 74.15479645 187.96490732 76.42188189 187.8125 78.6875 C187.75513672 79.80833984 187.69777344 80.92917969 187.63867188 82.08398438 C187.46008575 85.39262842 187.24007538 88.69528635 187 92 C186.92563721 93.04736328 186.85127441 94.09472656 186.7746582 95.17382812 C186.0453631 104.34556428 186.0453631 104.34556428 183 108 C180.17561161 109.4121942 177.56201088 109.40717138 174.4140625 109.68359375 C173.73945984 109.74343445 173.06485718 109.80327515 172.36981201 109.8649292 C170.12200543 110.06172297 167.87366374 110.25076332 165.625 110.4375 C164.84038391 110.50280914 164.05576782 110.56811829 163.24737549 110.63540649 C158.29292357 111.0443321 153.33732002 111.43653019 148.38061523 111.81713867 C146.85985298 111.93395243 145.33917298 112.05184552 143.81860352 112.17114258 C124.04611029 113.7174262 104.29392369 114.213347 84.46246338 114.29653931 C81.98746474 114.3070037 79.5124798 114.32180373 77.03753662 114.34140015 C23.1572066 114.71143842 23.1572066 114.71143842 4 99 C1.26666411 96.20950309 -0.91341833 93.29690857 -3 90 C-3.46019531 89.28585937 -3.92039063 88.57171875 -4.39453125 87.8359375 C-16.52202305 66.51206974 -12.94968744 37.11295986 -11.3125 13.5625 C-11.2594873 12.63477783 -11.20647461 11.70705566 -11.15185547 10.7512207 C-10.77607971 6.4963515 -10.58627664 4.61931961 -7.57421875 1.4375 C-4.60725306 -0.21931848 -3.32472716 -0.74806361 0 0 Z " fill="#62724E" transform="translate(157,247)"/>
<path d="M0 0 C3.50324927 -0.0097441 7.0059194 -0.04092004 10.5090332 -0.07226562 C33.56694561 -0.17975841 63.74653646 0.02504401 81.91333008 16.34179688 C93.65849647 28.721246 96.74537387 44.42391372 96.70629883 60.93554688 C96.70725555 61.8454538 96.70821228 62.75536072 96.709198 63.69284058 C96.70987519 65.61065744 96.70805324 67.52847666 96.70385742 69.44628906 C96.69854014 72.33599186 96.70379886 75.22553658 96.71020508 78.11523438 C96.71379318 83.49125889 96.6702612 88.86507403 96.57348633 94.24023438 C96.56023315 94.97834351 96.54697998 95.71645264 96.5333252 96.47692871 C96.48595534 98.41703814 96.40216687 100.35616262 96.31567383 102.29492188 C96.27039551 103.33890137 96.22511719 104.38288086 96.1784668 105.45849609 C95.4200819 108.94559757 94.04076833 110.69727927 91.57348633 113.24023438 C88.69848633 114.36523438 88.69848633 114.36523438 85.57348633 114.24023438 C80.0112003 110.80005375 80.0112003 110.80005375 79.03115845 107.30761719 C78.83145986 104.95372461 78.82098792 102.66454023 78.87426758 100.30273438 C78.86889984 99.4335437 78.8635321 98.56435303 78.85800171 97.66882324 C78.84836033 95.81577846 78.85131624 93.96263229 78.86581421 92.10961914 C78.89941837 87.3295927 78.83156485 82.55106166 78.76879883 77.77148438 C78.75332253 76.3786322 78.75332253 76.3786322 78.73753357 74.9576416 C78.43995897 52.24143493 78.43995897 52.24143493 68.57348633 32.49023438 C54.77189601 20.06295495 35.19992991 18.60024423 17.57348633 17.24023438 C18.06848633 18.23023438 18.06848633 18.23023438 18.57348633 19.24023438 C20.87706815 19.83426833 20.87706815 19.83426833 23.68286133 20.16992188 C24.74182617 20.32315918 25.80079102 20.47639648 26.8918457 20.63427734 C28.02428711 20.79299316 29.15672852 20.95170898 30.32348633 21.11523438 C58.74844277 25.41585173 58.74844277 25.41585173 68.44848633 36.17773438 C78.69691025 50.9475218 76.79961652 72.12079417 76.92358398 89.38745117 C76.94037994 91.10080319 76.96796643 92.81407894 77.00561523 94.52709961 C77.06017444 97.03990699 77.08218925 99.55113521 77.09692383 102.06445312 C77.1195932 102.82795578 77.14226257 103.59145844 77.1656189 104.37809753 C77.15020365 108.22953852 76.89946074 109.88950715 74.23608398 112.75512695 C71.57348633 114.24023438 71.57348633 114.24023438 68.44848633 114.17773438 C65.45653188 113.20209705 64.44553926 112.69041631 62.57348633 110.24023438 C62.17285156 107.87451172 62.17285156 107.87451172 62.13208008 105.07617188 C62.10726562 104.04459961 62.08245117 103.01302734 62.05688477 101.95019531 C62.04173828 100.8496582 62.0265918 99.74912109 62.01098633 98.61523438 C61.94643729 96.3364578 61.87741336 94.05780366 61.80395508 91.77929688 C61.75053955 90.10335449 61.75053955 90.10335449 61.69604492 88.39355469 C61.18217273 75.1720941 60.15072531 59.77512497 50.40551758 49.78320312 C36.89621928 38.4054359 18.22073185 31.83506802 0.57348633 32.24023438 C4.34078074 33.34383593 8.1075681 34.38661946 11.92114258 35.31835938 C44.84352262 43.42644685 44.84352262 43.42644685 53.51098633 57.42773438 C59.65240591 70.03609048 59.76012706 84.93606979 59.94848633 98.67773438 C60.00456055 100.27004883 60.00456055 100.27004883 60.06176758 101.89453125 C60.1490353 109.56924261 60.1490353 109.56924261 57.24145508 112.95898438 C54.57348633 114.24023438 54.57348633 114.24023438 51.51098633 114.30273438 C47.67255675 112.91436623 46.70494802 111.73813105 44.57348633 108.24023438 C43.86898901 104.75982978 43.69838276 101.28137041 43.51098633 97.74023438 C42.12589658 78.25084624 42.12589658 78.25084624 31.56958008 62.31054688 C9.70327657 44.08210781 -22.67341542 44.67089528 -49.42651367 45.24023438 C-48.3646184 46.84787354 -48.3646184 46.84787354 -46.42651367 48.24023438 C-43.12165453 48.80953612 -43.12165453 48.80953612 -39.30151367 48.90039062 C-38.59937744 48.93579453 -37.89724121 48.97119843 -37.17382812 49.00767517 C-34.92511894 49.11939149 -32.67617341 49.21235272 -30.42651367 49.30273438 C-2.13769105 50.529057 -2.13769105 50.529057 5.57348633 58.24023438 C6.13457776 61.29965921 6.08517736 64.1755317 5.57348633 67.24023438 C3.63598633 69.80273438 3.63598633 69.80273438 0.57348633 71.24023438 C-6.49425267 71.50667692 -13.44977866 70.89572617 -20.48901367 70.30273438 C-28.28743014 69.67051864 -36.06621166 69.17296295 -43.88745117 68.99023438 C-44.59471848 68.97302841 -45.30198578 68.95582245 -46.03068542 68.93809509 C-49.47479946 68.85793069 -52.91735808 68.79655119 -56.36230469 68.75805664 C-73.53808412 68.41639671 -88.14782073 64.08840614 -100.66479492 52.09570312 C-103.17315228 48.03005073 -102.90451159 44.66967692 -102.73901367 39.99023438 C-102.72136963 39.11286621 -102.70372559 38.23549805 -102.68554688 37.33154297 C-102.62206558 34.63322304 -102.52648282 31.93742174 -102.42651367 29.24023438 C-102.40427734 28.41620117 -102.38204102 27.59216797 -102.35913086 26.74316406 C-102.29622254 24.44935767 -102.21077287 22.15784007 -102.11401367 19.86523438 C-102.09185791 19.18299805 -102.06970215 18.50076172 -102.046875 17.79785156 C-101.79773775 13.31226134 -100.76928993 10.06966125 -98.42651367 6.24023438 C-96.05023965 5.05209736 -94.30291344 4.97443395 -91.65161133 4.77539062 C-90.15701889 4.66022095 -90.15701889 4.66022095 -88.63223267 4.54272461 C-87.54598602 4.46352783 -86.45973938 4.38433105 -85.34057617 4.30273438 C-83.65138565 4.17523804 -83.65138565 4.17523804 -81.92807007 4.04516602 C-79.5289385 3.86501247 -77.1296503 3.686935 -74.73022461 3.51074219 C-71.12859248 3.24590224 -67.52753877 2.9741272 -63.92651367 2.70117188 C-42.59269065 1.09898722 -21.39842964 0.03583576 0 0 Z " fill="#62724E" transform="translate(236.426513671875,138.759765625)"/>
<path d="M0 0 C5.78051728 4.42763026 9.35257584 10.88429067 11.25 17.8125 C12.42227587 29.94631646 9.93494868 39.35277618 2.25 48.8125 C-2.35934286 53.55741176 -6.69907488 57.63245888 -13.5625 57.9375 C-14.284375 57.89625 -15.00625 57.855 -15.75 57.8125 C-15.6875 55.5 -15.6875 55.5 -14.75 52.8125 C-13.09328767 52.05041233 -11.42737704 51.30129636 -9.71875 50.6640625 C-2.17546494 47.40129237 1.21293823 41.10395821 4.25 33.8125 C6.49336196 27.08241413 6.1658963 19.87278905 3.1875 13.4375 C-0.71655765 6.58615375 -6.13808276 2.05863951 -13.75 -0.1875 C-22.14080389 -1.25714922 -28.80336478 -0.13172436 -35.75 4.8125 C-40.3301373 9.06955708 -43.53728736 13.18536072 -44.05078125 19.52734375 C-44.06531863 20.93482618 -44.06891542 22.34245712 -44.0625 23.75 C-44.07861328 24.45318359 -44.09472656 25.15636719 -44.11132812 25.88085938 C-44.11559759 30.43637765 -43.34084605 33.10054906 -40.75 36.8125 C-40.75 37.4725 -40.75 38.1325 -40.75 38.8125 C-40.234375 39.06 -39.71875 39.3075 -39.1875 39.5625 C-36.75 40.8125 -36.75 40.8125 -33.6875 42.9375 C-28.88414138 45.65288903 -24.11005992 45.78227241 -18.75 44.8125 C-13.38652476 42.64915002 -9.7657379 39.63904989 -7.1875 34.4375 C-5.1361267 28.83856829 -4.85388294 24.2650309 -6.9375 18.5625 C-9.28899209 14.9947189 -11.93442157 12.72028921 -15.75 10.8125 C-21.32335568 10.44094295 -24.98651851 10.56467171 -29.75 13.8125 C-32.80663803 17.1908894 -34.03659091 19.89334154 -34.3125 24.375 C-34.13670415 27.84989804 -33.75044917 28.81184667 -31.6875 31.8125 C-28.13499794 34.23122481 -26.05447895 34.96623139 -21.75 34.8125 C-18.31939173 32.35141146 -17.00464309 30.6782865 -15.8125 26.625 C-15.791875 25.696875 -15.77125 24.76875 -15.75 23.8125 C-17.64755144 21.46276182 -17.64755144 21.46276182 -20.875 21.6875 C-21.82375 21.72875 -22.7725 21.77 -23.75 21.8125 C-23.09 24.1225 -22.43 26.4325 -21.75 28.8125 C-24.225 29.3075 -24.225 29.3075 -26.75 29.8125 C-29.23836965 26.07994552 -29.29226552 24.22809065 -28.75 19.8125 C-26.64576213 17.2479601 -25.0789564 16.09651084 -21.8125 15.3984375 C-17.99616976 15.12377737 -16.07416536 15.6166501 -12.75 17.625 C-9.81156181 22.30813587 -9.64338005 26.43309746 -10.75 31.8125 C-13.0036924 35.84097516 -15.35328046 38.34692682 -19.75 39.8125 C-30.08681836 40.94841411 -30.08681836 40.94841411 -34.25 37.75 C-38.36025012 32.92045611 -40.39310549 28.30408496 -40.09375 21.85546875 C-39.02114615 15.48078906 -35.54646765 10.8543889 -30.53125 6.93359375 C-27.89519524 5.27449788 -25.85497012 4.9366988 -22.75 4.8125 C-22.03585938 4.75191406 -21.32171875 4.69132813 -20.5859375 4.62890625 C-13.56894332 4.24168082 -10.28861867 6.56906955 -5.0625 11.1875 C-0.33044605 16.5590207 0.81197896 20.96061301 0.6015625 28 C-0.45363981 36.44161847 -5.11988066 42.95474648 -11.6875 48.125 C-18.05978685 51.6362601 -25.23205964 51.44070364 -32.25 50.1875 C-40.94123666 46.7730856 -45.76295632 41.17287532 -49.75 32.8125 C-52.05980612 25.67181889 -51.59462766 17.74951411 -48.2109375 11.078125 C-43.43141538 3.66603188 -37.2754117 -3.60229183 -28.40234375 -5.7578125 C-17.73338122 -7.48621586 -9.10467039 -5.73773539 0 0 Z " fill="#858E71" transform="translate(257.75,226.1875)"/>
<path d="M0 0 C16.25398173 -0.99514174 34.81428514 5.1496876 47.8125 14.9375 C58.93633617 24.85980683 61.69987893 37.07740854 62.85205078 51.38720703 C63.33461208 59.90927141 63.14702016 68.46943774 63 77 C62.01 77 61.02 77 60 77 C59.96036133 76.07888428 59.92072266 75.15776855 59.87988281 74.20874023 C59.72146444 70.71325202 59.54805862 67.2191194 59.36523438 63.72485352 C59.28977855 62.22708732 59.21990225 60.72902713 59.15625 59.23071289 C58.58689275 45.97981258 57.74476183 30.03077161 48 20 C36.7978763 10.68739114 22.19065698 6.80809417 8.11914062 4.38012695 C6.06183205 4.00656076 4.02728372 3.51204589 2 3 C1.34 2.01 0.68 1.02 0 0 Z " fill="#EBEDE8" transform="translate(236,170)"/>
<path d="M0 0 C0.99 0.33 1.98 0.66 3 1 C3.15855469 2.30453125 3.31710938 3.6090625 3.48046875 4.953125 C5.826874 24.29037542 5.826874 24.29037542 17.4375 39.26171875 C30.7194967 48.27160981 46.44201867 52.00995046 62 55 C62 55.66 62 56.32 62 57 C45.40764779 58.33809292 26.85864073 51.17434536 14 41 C13.33742187 40.47664063 12.67484375 39.95328125 11.9921875 39.4140625 C3.29670879 31.69729568 0.97761645 20.13632648 0 9 C-0.12149363 5.97522748 -0.10265309 3.02826604 0 0 Z " fill="#F0F1ED" transform="translate(180,273)"/>
<path d="M0 0 C16.94807935 -0.88169199 36.4496123 2.07691509 49.6875 13.4375 C57.48472532 21.24763464 59.78332557 29.17500877 61 40 C60.609375 43.69140625 60.609375 43.69140625 60 47 C59.80776365 48.47855858 59.61924031 49.95761462 59.4375 51.4375 C59.293125 52.613125 59.14875 53.78875 59 55 C58.67 55 58.34 55 58 55 C57.93268677 54.07102905 57.93268677 54.07102905 57.86401367 53.12329102 C57.65036252 50.2686669 57.4190398 47.41572669 57.1875 44.5625 C57.11724609 43.58861328 57.04699219 42.61472656 56.97460938 41.61132812 C56.19617133 32.30120916 54.46661046 23.06073683 47.31640625 16.44140625 C39.22085416 9.90958253 29.97091152 7.47181417 19.875 5.8125 C18.93785156 5.64814453 18.00070312 5.48378906 17.03515625 5.31445312 C11.70382047 4.39358604 6.37366655 3.6258741 1 3 C0.67 2.01 0.34 1.02 0 0 Z " fill="#F0F1ED" transform="translate(254,156)"/>
<path d="M0 0 C0.33 0 0.66 0 1 0 C1.09796875 1.05058594 1.1959375 2.10117187 1.296875 3.18359375 C2.32336064 13.18051594 3.55316279 22.55316279 11 30 C20.70945543 37.49542284 32.1682542 39.6563016 44.0625 41.1875 C46.4704306 41.51152232 48.87800538 41.83820377 51.28515625 42.16796875 C52.33582275 42.30485107 53.38648926 42.4417334 54.46899414 42.58276367 C57 43 57 43 59 44 C59 44.66 59 45.32 59 46 C42.04724976 46.99559382 22.42850753 44.13450628 9.0390625 32.96875 C2.4165317 26.57458233 -0.82559 19.11817199 -2 10 C-1.6015625 7.84765625 -1.6015625 7.84765625 -1 6 C-0.65421232 4.00211562 -0.31856451 2.00240549 0 0 Z " fill="#EFF1ED" transform="translate(166,298)"/>
<path d="M0 0 C1.65 0.33 3.3 0.66 5 1 C4.67 2.32 4.34 3.64 4 5 C2.35 4.67 0.7 4.34 -1 4 C-0.67 2.68 -0.34 1.36 0 0 Z " fill="#E9EBE5" transform="translate(304,243)"/>
<path d="M0 0 C1.65 0.33 3.3 0.66 5 1 C4.67 2.32 4.34 3.64 4 5 C2.35 4.67 0.7 4.34 -1 4 C-0.67 2.68 -0.34 1.36 0 0 Z " fill="#E9EBE5" transform="translate(244,293)"/>
<path d="M0 0 C2.475 0.495 2.475 0.495 5 1 C4.67 2.32 4.34 3.64 4 5 C2.68 5 1.36 5 0 5 C0 3.35 0 1.7 0 0 Z " fill="#F3F4F1" transform="translate(187,252)"/>
<path d="M0 0 C2.475 0.495 2.475 0.495 5 1 C4.67 2.32 4.34 3.64 4 5 C2.68 5 1.36 5 0 5 C0 3.35 0 1.7 0 0 Z " fill="#F4F5F2" transform="translate(152,252)"/>
<path d="M0 0 C2.475 0.495 2.475 0.495 5 1 C4.67 2.32 4.34 3.64 4 5 C2.68 5 1.36 5 0 5 C0 3.35 0 1.7 0 0 Z " fill="#F2F3F0" transform="translate(322,243)"/>
<path d="M0 0 C2.475 0.495 2.475 0.495 5 1 C4.67 2.32 4.34 3.64 4 5 C2.68 5 1.36 5 0 5 C0 3.35 0 1.7 0 0 Z " fill="#F0F1ED" transform="translate(287,243)"/>
<path d="M0 0 C2.475 0.495 2.475 0.495 5 1 C4.67 2.32 4.34 3.64 4 5 C2.68 4.67 1.36 4.34 0 4 C0 2.68 0 1.36 0 0 Z " fill="#F7F7F5" transform="translate(170,252)"/>
<path d="M0 0 C1.98 0.495 1.98 0.495 4 1 C3.67 2.32 3.34 3.64 3 5 C1.68 4.67 0.36 4.34 -1 4 C-0.67 2.68 -0.34 1.36 0 0 Z " fill="#F1F2EE" transform="translate(231,202)"/>
</svg>